<mxfile host="app.diagrams.net" modified="2020-07-30T01:03:09.913Z" agent="5.0 (Windows NT 10.0; Win64; x64) AppleWebKit/537.36 (KHTML, like Gecko) Chrome/84.0.4147.89 Safari/537.36" etag="wHzHJU52VZK5Zd1QTHP9" version="13.5.5" type="github">
  <diagram id="seHBH2MFr_OPqOwsCDsy" name="Page-1">
    <mxGraphModel dx="1014" dy="509" grid="1" gridSize="10" guides="1" tooltips="1" connect="1" arrows="1" fold="1" page="1" pageScale="1" pageWidth="827" pageHeight="1169" math="0" shadow="0">
      <root>
        <mxCell id="0" />
        <mxCell id="1" parent="0" />
        <mxCell id="wD8jBbLTwX8sHAbYv-7n-1" value="" style="whiteSpace=wrap;html=1;aspect=fixed;fillColor=none;" vertex="1" parent="1">
          <mxGeometry x="90" y="170" width="220" height="220" as="geometry" />
        </mxCell>
        <mxCell id="8JgZ8Ufx-ZJkyHMb68IR-18" style="edgeStyle=none;rounded=0;orthogonalLoop=1;jettySize=auto;html=1;" parent="1" source="8JgZ8Ufx-ZJkyHMb68IR-1" target="8JgZ8Ufx-ZJkyHMb68IR-2" edge="1">
          <mxGeometry relative="1" as="geometry" />
        </mxCell>
        <mxCell id="8JgZ8Ufx-ZJkyHMb68IR-1" value="CRPC系统" style="rounded=0;whiteSpace=wrap;html=1;" parent="1" vertex="1">
          <mxGeometry x="140" y="185" width="120" height="70" as="geometry" />
        </mxCell>
        <mxCell id="8JgZ8Ufx-ZJkyHMb68IR-2" value="CRPC库" style="shape=cylinder2;whiteSpace=wrap;html=1;boundedLbl=1;backgroundOutline=1;size=15;" parent="1" vertex="1">
          <mxGeometry x="170" y="290" width="60" height="80" as="geometry" />
        </mxCell>
        <mxCell id="8JgZ8Ufx-ZJkyHMb68IR-11" style="rounded=0;orthogonalLoop=1;jettySize=auto;html=1;" parent="1" source="8JgZ8Ufx-ZJkyHMb68IR-5" target="wD8jBbLTwX8sHAbYv-7n-1" edge="1">
          <mxGeometry relative="1" as="geometry" />
        </mxCell>
        <mxCell id="wD8jBbLTwX8sHAbYv-7n-2" value="抽文件" style="edgeLabel;html=1;align=center;verticalAlign=middle;resizable=0;points=[];" vertex="1" connectable="0" parent="8JgZ8Ufx-ZJkyHMb68IR-11">
          <mxGeometry x="0.2314" y="1" relative="1" as="geometry">
            <mxPoint as="offset" />
          </mxGeometry>
        </mxCell>
        <mxCell id="8JgZ8Ufx-ZJkyHMb68IR-12" style="edgeStyle=none;rounded=0;orthogonalLoop=1;jettySize=auto;html=1;" parent="1" source="8JgZ8Ufx-ZJkyHMb68IR-5" target="8JgZ8Ufx-ZJkyHMb68IR-7" edge="1">
          <mxGeometry relative="1" as="geometry" />
        </mxCell>
        <mxCell id="8JgZ8Ufx-ZJkyHMb68IR-5" value="内网系统" style="rounded=0;whiteSpace=wrap;html=1;" parent="1" vertex="1">
          <mxGeometry x="400" y="160" width="120" height="70" as="geometry" />
        </mxCell>
        <mxCell id="8JgZ8Ufx-ZJkyHMb68IR-7" value="内网库" style="shape=cylinder2;whiteSpace=wrap;html=1;boundedLbl=1;backgroundOutline=1;size=15;" parent="1" vertex="1">
          <mxGeometry x="420" y="310" width="60" height="80" as="geometry" />
        </mxCell>
        <mxCell id="8JgZ8Ufx-ZJkyHMb68IR-8" value="" style="endArrow=none;dashed=1;html=1;" parent="1" edge="1">
          <mxGeometry width="50" height="50" relative="1" as="geometry">
            <mxPoint x="550" y="440" as="sourcePoint" />
            <mxPoint x="550" y="90" as="targetPoint" />
          </mxGeometry>
        </mxCell>
        <mxCell id="8JgZ8Ufx-ZJkyHMb68IR-15" style="edgeStyle=none;rounded=0;orthogonalLoop=1;jettySize=auto;html=1;" parent="1" source="8JgZ8Ufx-ZJkyHMb68IR-9" target="8JgZ8Ufx-ZJkyHMb68IR-10" edge="1">
          <mxGeometry relative="1" as="geometry" />
        </mxCell>
        <mxCell id="8JgZ8Ufx-ZJkyHMb68IR-9" value="外网系统" style="rounded=0;whiteSpace=wrap;html=1;" parent="1" vertex="1">
          <mxGeometry x="610" y="160" width="120" height="70" as="geometry" />
        </mxCell>
        <mxCell id="8JgZ8Ufx-ZJkyHMb68IR-10" value="外网库" style="shape=cylinder2;whiteSpace=wrap;html=1;boundedLbl=1;backgroundOutline=1;size=15;" parent="1" vertex="1">
          <mxGeometry x="650" y="310" width="60" height="80" as="geometry" />
        </mxCell>
        <mxCell id="8JgZ8Ufx-ZJkyHMb68IR-14" value="摆渡导出" style="shape=flexArrow;endArrow=classic;html=1;" parent="1" edge="1">
          <mxGeometry width="50" height="50" relative="1" as="geometry">
            <mxPoint x="530" y="210" as="sourcePoint" />
            <mxPoint x="596" y="210" as="targetPoint" />
          </mxGeometry>
        </mxCell>
        <mxCell id="8JgZ8Ufx-ZJkyHMb68IR-17" style="edgeStyle=none;rounded=0;orthogonalLoop=1;jettySize=auto;html=1;entryX=1;entryY=0.5;entryDx=0;entryDy=0;" parent="1" source="8JgZ8Ufx-ZJkyHMb68IR-16" target="8JgZ8Ufx-ZJkyHMb68IR-9" edge="1">
          <mxGeometry relative="1" as="geometry" />
        </mxCell>
        <mxCell id="8JgZ8Ufx-ZJkyHMb68IR-16" value="用户" style="shape=umlActor;verticalLabelPosition=bottom;verticalAlign=top;html=1;outlineConnect=0;" parent="1" vertex="1">
          <mxGeometry x="830" y="200" width="30" height="60" as="geometry" />
        </mxCell>
      </root>
    </mxGraphModel>
  </diagram>
</mxfile>
